HIERARCHY
ROOT hip
{
	OFFSET 0.000000 0.000000 0.000000 
	CHANNELS 6 Xposition Yposition Zposition Xrotation Zrotation Yrotation
	JOINT abdomen
	{
		OFFSET 0.000000 3.402643 0.000000 
		CHANNELS 3 Xrotation Zrotation Yrotation
		JOINT chest
		{
			OFFSET 0.000000 8.438565 -0.680529 
			CHANNELS 3 Xrotation Zrotation Yrotation
			JOINT neck
			{
				OFFSET 0.000000 10.207942 -0.272212 
				CHANNELS 3 Xrotation Zrotation Yrotation
				JOINT head
				{
					OFFSET 0.000000 3.130431 0.000000 
					CHANNELS 3 Xrotation Zrotation Yrotation
					End Site
					{
						OFFSET 0.000000 3.130435 0.000000 
					}
				}
			}
			JOINT lCollar
			{
				OFFSET 3.470700 6.669187 -0.816635 
				CHANNELS 3 Yrotation Zrotation Xrotation
				JOINT lShldr
				{
					OFFSET 3.198488 0.000000 0.000000 
					CHANNELS 3 Zrotation Yrotation Xrotation
					JOINT lForeArm
					{
						OFFSET 10.139888 0.000000 0.000000 
						CHANNELS 3 Yrotation Zrotation Xrotation
						JOINT lHand
						{
							OFFSET 8.370511 0.000000 0.000000 
							CHANNELS 3 Zrotation Yrotation Xrotation
							End Site
							{
								OFFSET 4.083176 0.000000 0.000000 
							}
						}
					}
				}
			}
			JOINT rCollar
			{
				OFFSET -3.470700 6.669187 -0.816635 
				CHANNELS 3 Yrotation Zrotation Xrotation
				JOINT rShldr
				{
					OFFSET -3.198488 0.000000 0.000000 
					CHANNELS 3 Zrotation Yrotation Xrotation
					JOINT rForeArm
					{
						OFFSET -10.139888 0.000000 0.000000 
						CHANNELS 3 Yrotation Zrotation Xrotation
						JOINT rHand
						{
							OFFSET -8.370511 0.000000 0.000000 
							CHANNELS 3 Zrotation Yrotation Xrotation
							End Site
							{
								OFFSET -4.083176 0.000000 0.000000 
							}
						}
					}
				}
			}
		}
	}
	JOINT lThigh
	{
		OFFSET 5.308129 -1.633274 1.361059 
		CHANNELS 3 Xrotation Zrotation Yrotation
		JOINT lShin
		{
			OFFSET -2.041588 -20.007561 0.000000 
			CHANNELS 3 Xrotation Zrotation Yrotation
			JOINT lFoot
			{
				OFFSET 0.000000 -19.190928 -1.224953 
				CHANNELS 3 Xrotation Yrotation Zrotation
				End Site
				{
					OFFSET 0.000000 -2.449906 4.627600 
				}
			}
		}
	}
	JOINT rThigh
	{
		OFFSET -5.308129 -1.633274 1.361059 
		CHANNELS 3 Xrotation Zrotation Yrotation
		JOINT rShin
		{
			OFFSET 2.041588 -20.007561 0.000000 
			CHANNELS 3 Xrotation Zrotation Yrotation
			JOINT rFoot
			{
				OFFSET 0.000000 -19.190928 -1.224953 
				CHANNELS 3 Xrotation Yrotation Zrotation
				End Site
				{
					OFFSET 0.000000 -2.449906 4.627600 
				}
			}
		}
	}
}
MOTION
Frames: 6
Frame Time: 0.016667
7.418413 42.748112 -2.351274 20.081900 2.705980 -31.725700 -14.161500 -2.702280 -1.540370 10.624800 -0.327055 -0.997421 11.594000 -12.457900 9.301130 12.833100 0.232685 5.116580 2.000000 -2.000000 0.000000 100.028000 -139.990997 -7.728800 76.816902 -0.246030 0.133162 0.205277 -0.160438 133.009995 -2.000000 2.000000 0.000000 77.029800 -2.596250 -140.766006 -99.365601 0.194189 0.115503 1.645780 -0.681154 -142.257004 0.700738 -3.036915 15.534938 -41.276344 2.682340 -2.918175 20.804810 18.004007 -6.034151 -22.584606 -1.942475 20.029367 -11.110538 -1.944565 1.082731 7.536040 -16.527380 1.675205 
7.435275 42.721981 -2.364743 20.260201 2.831190 -31.865499 -14.182400 -2.718600 -1.445460 10.693100 -0.442579 -0.938676 11.416300 -12.095400 9.222600 12.716300 0.368147 5.068450 2.000000 -2.000000 0.000000 99.735100 -140.001999 -7.308910 77.608002 -0.244189 0.133580 0.204183 -0.160436 133.399994 -2.000000 2.000000 0.000000 77.098503 -2.996290 -140.953003 -100.214996 0.192334 0.115183 1.646850 -0.686739 -142.031998 0.534550 -3.012244 15.492715 -41.395535 2.668722 -2.940250 20.915651 18.134851 -6.112176 -22.843599 -1.894184 19.936693 -11.135371 -1.972501 1.085585 7.724165 -16.313837 1.695003 
7.452125 42.695850 -2.378235 20.438601 2.956090 -32.004398 -14.212900 -2.728780 -1.361720 10.761300 -0.548526 -0.891633 11.249600 -11.732100 9.142320 12.589800 0.494069 5.027990 2.000000 -2.000000 0.000000 99.442001 -140.003006 -6.879220 78.389198 -0.242366 0.133967 0.203062 -0.170191 133.800995 -2.000000 2.000000 0.000000 77.167198 -3.396320 -141.149002 -101.074997 0.190463 0.114832 1.638210 -0.692360 -141.817001 0.337762 -2.993719 15.452647 -41.475365 2.652621 -2.952659 21.013712 18.258398 -6.210851 -23.382061 -1.901089 19.834555 -10.694011 -1.714623 1.075734 7.559998 -16.108286 1.544766 
7.438542 42.684402 -2.393906 20.453699 3.221250 -32.373299 -14.421700 -2.753900 -1.066870 10.624500 -0.596395 -0.745184 11.813200 -12.006800 8.924360 12.735800 0.348782 4.967960 2.000000 -2.000000 0.000000 98.787003 -139.809006 -6.380710 77.920403 -0.243460 0.133738 0.202324 -0.170180 134.065002 -2.000000 2.000000 0.000000 77.275299 -3.795960 -141.550003 -101.171997 0.190250 0.114790 1.647200 -0.687015 -142.061996 0.204831 -3.119609 15.582774 -41.446301 2.647179 -2.951068 20.987316 18.391567 -6.243684 -23.574490 -1.919080 19.912416 -10.783541 -1.715521 1.093287 7.892245 -15.935719 1.632097 
7.424961 42.672943 -2.409589 20.469299 3.486380 -32.742100 -14.630100 -2.778740 -0.770673 10.477900 -0.653816 -0.596688 12.368200 -12.271000 8.695060 12.872100 0.203631 4.897380 2.000000 -2.000000 0.000000 98.132004 -139.615005 -5.872450 77.451698 -0.244553 0.133499 0.201586 -0.170166 134.328003 -2.000000 2.000000 0.000000 77.393097 -4.185840 -141.951996 -101.279999 0.190017 0.114744 1.646250 -0.681516 -142.296005 0.143332 -3.279932 15.684284 -41.456261 2.644091 -2.949451 20.935898 18.561975 -6.281609 -23.795177 -1.959027 19.991825 -10.834393 -1.704399 1.081000 8.191033 -15.750244 1.716301 
7.413693 42.681831 -2.410083 20.254101 3.491230 -32.882099 -14.709700 -2.851820 -0.687956 10.292100 -0.739920 -0.549616 12.670300 -12.622900 8.678500 12.998700 0.068254 4.905760 2.000000 -2.000000 0.000000 98.152298 -139.897995 -5.863350 77.295502 -0.244917 0.133418 0.202515 -0.170183 133.996002 -2.000000 2.000000 0.000000 77.227097 -4.000200 -142.000000 -100.957001 0.190718 0.114881 1.652050 -0.664054 -142.931000 0.347337 -3.337108 15.651731 -41.386669 2.651524 -2.933573 20.815754 18.629877 -6.253244 -23.489773 -1.982513 20.093437 -11.054388 -1.814410 1.098206 8.372220 -15.686846 1.790823 
